<?xml version="1.0" encoding="UTF-8"?>
<svg xmlns="http://www.w3.org/2000/svg" xmlns:xlink="http://www.w3.org/1999/xlink" width="60px" height="60px" viewBox="0 0 60 60" version="1.1">
<g id="surface1">
<path style=" stroke:none;fill-rule:nonzero;fill:rgb(100%,100%,100%);fill-opacity:1;" d="M 0 0 L 60 0 L 60 0.0859375 C 40 0.09375 20 0.078125 0 0.09375 Z M 0 0 "/>
<path style=" stroke:none;fill-rule:nonzero;fill:rgb(100%,100%,100%);fill-opacity:1;" d="M 0.898438 0.957031 C 9.046875 0.933594 17.199219 0.953125 25.347656 0.949219 C 36.65625 0.945312 47.96875 0.949219 59.277344 0.945312 C 59.277344 20.410156 59.273438 39.878906 59.277344 59.34375 C 39.824219 59.351562 20.367188 59.34375 0.910156 59.347656 C 0.894531 39.882812 0.910156 20.417969 0.898438 0.957031 Z M 9.054688 1.988281 C 9.0625 3.554688 9.058594 5.125 9.054688 6.691406 C 9.824219 6.671875 10.601562 6.746094 11.367188 6.621094 C 12.085938 6.507812 12.667969 5.933594 12.890625 5.253906 C 13.101562 4.570312 13.070312 3.792969 12.738281 3.148438 C 12.464844 2.59375 11.910156 2.195312 11.308594 2.074219 C 10.566406 1.929688 9.804688 2 9.054688 1.988281 Z M 14.953125 9.519531 C 14.515625 9.96875 14.273438 10.597656 14.292969 11.222656 C 14.269531 11.867188 14.488281 12.535156 14.953125 12.992188 C 15.433594 13.515625 16.167969 13.757812 16.871094 13.71875 C 17.628906 13.738281 18.351562 13.347656 18.84375 12.785156 C 18.625 12.582031 18.414062 12.371094 18.21875 12.144531 C 18.035156 12.3125 17.839844 12.480469 17.625 12.613281 C 16.953125 13.007812 16 12.851562 15.523438 12.21875 C 15.164062 11.738281 15.105469 11.046875 15.378906 10.511719 C 15.679688 9.941406 16.347656 9.566406 16.996094 9.675781 C 17.46875 9.734375 17.894531 10.003906 18.207031 10.355469 C 18.421875 10.140625 18.652344 9.945312 18.863281 9.726562 C 18.410156 9.183594 17.734375 8.835938 17.03125 8.78125 C 16.273438 8.703125 15.496094 8.992188 14.953125 9.519531 Z M 37.792969 8.796875 C 37.253906 8.878906 36.742188 9.148438 36.371094 9.550781 C 35.5 10.460938 35.5 12.050781 36.378906 12.957031 C 37.292969 14.007812 39.128906 13.96875 40.011719 12.898438 C 40.464844 12.390625 40.667969 11.683594 40.597656 11.011719 C 40.542969 10.285156 40.132812 9.589844 39.527344 9.183594 C 39.035156 8.824219 38.390625 8.710938 37.792969 8.796875 Z M 10.570312 8.855469 C 10.277344 9.640625 10.003906 10.4375 9.703125 11.222656 C 9.25 11.101562 8.777344 11.101562 8.324219 11.21875 C 8.363281 11.421875 8.414062 11.621094 8.453125 11.824219 C 8.800781 11.789062 9.152344 11.710938 9.496094 11.820312 C 9.265625 12.40625 9.058594 13.003906 8.835938 13.59375 C 9.457031 13.597656 10.078125 13.589844 10.699219 13.597656 C 10.835938 13.300781 10.882812 12.960938 11.066406 12.6875 C 11.164062 12.992188 11.277344 13.292969 11.390625 13.597656 C 12.011719 13.589844 12.632812 13.59375 13.253906 13.59375 C 12.675781 12.011719 12.097656 10.433594 11.519531 8.855469 C 11.203125 8.851562 10.886719 8.855469 10.570312 8.855469 Z M 4.996094 8.878906 C 4.996094 10.449219 5.003906 12.019531 4.992188 13.589844 C 5.542969 13.597656 6.089844 13.59375 6.636719 13.59375 C 7.128906 13.582031 7.605469 13.300781 7.832031 12.859375 C 7.996094 12.574219 7.972656 12.234375 7.949219 11.917969 C 7.882812 11.503906 7.558594 11.175781 7.183594 11.011719 C 7.382812 10.832031 7.585938 10.621094 7.621094 10.34375 C 7.75 9.773438 7.375 9.167969 6.820312 9.007812 C 6.230469 8.828125 5.601562 8.894531 4.996094 8.878906 Z M 19.566406 8.878906 C 19.570312 10.453125 19.566406 12.023438 19.566406 13.597656 C 19.882812 13.59375 20.199219 13.59375 20.515625 13.597656 C 20.511719 12.914062 20.515625 12.230469 20.511719 11.550781 C 21.027344 11.550781 21.539062 11.550781 22.054688 11.550781 C 22.046875 12.230469 22.058594 12.914062 22.050781 13.597656 C 22.359375 13.589844 22.667969 13.597656 22.976562 13.589844 C 22.964844 12.019531 22.972656 10.449219 22.972656 8.878906 C 22.667969 8.882812 22.363281 8.882812 22.058594 8.875 C 22.042969 9.472656 22.058594 10.070312 22.050781 10.664062 C 21.539062 10.664062 21.027344 10.664062 20.515625 10.664062 C 20.507812 10.070312 20.523438 9.472656 20.507812 8.875 C 20.195312 8.882812 19.878906 8.882812 19.566406 8.878906 Z M 27.496094 8.878906 C 27.496094 10.453125 27.5 12.023438 27.496094 13.597656 C 27.800781 13.59375 28.109375 13.589844 28.414062 13.597656 C 28.421875 12.921875 28.414062 12.246094 28.417969 11.570312 C 28.902344 12.230469 29.359375 12.914062 29.824219 13.59375 C 30.195312 13.59375 30.566406 13.59375 30.9375 13.59375 C 30.339844 12.726562 29.746094 11.859375 29.140625 11 C 29.675781 10.285156 30.257812 9.609375 30.777344 8.878906 C 30.40625 8.894531 30.03125 8.855469 29.660156 8.894531 C 29.226562 9.402344 28.84375 9.949219 28.414062 10.460938 C 28.414062 9.941406 28.425781 9.421875 28.414062 8.90625 C 28.121094 8.847656 27.800781 8.898438 27.496094 8.878906 Z M 31.496094 8.878906 C 31.5 10.453125 31.492188 12.027344 31.496094 13.597656 C 31.8125 13.589844 32.128906 13.59375 32.445312 13.597656 C 32.441406 12.914062 32.445312 12.230469 32.441406 11.550781 C 32.953125 11.550781 33.46875 11.554688 33.980469 11.546875 C 33.976562 12.230469 33.984375 12.914062 33.976562 13.597656 C 34.285156 13.59375 34.59375 13.59375 34.902344 13.597656 C 34.898438 12.023438 34.898438 10.453125 34.902344 8.878906 C 34.597656 8.882812 34.289062 8.882812 33.984375 8.875 C 33.972656 9.472656 33.984375 10.070312 33.980469 10.664062 C 33.46875 10.664062 32.957031 10.664062 32.445312 10.664062 C 32.4375 10.070312 32.449219 9.472656 32.4375 8.875 C 32.125 8.882812 31.808594 8.878906 31.496094 8.878906 Z M 42.601562 9.558594 C 42.078125 10.902344 41.558594 12.25 41.03125 13.59375 C 41.359375 13.59375 41.683594 13.59375 42.011719 13.59375 C 42.117188 13.273438 42.253906 12.964844 42.375 12.652344 C 43.003906 12.648438 43.632812 12.65625 44.265625 12.648438 C 44.390625 12.960938 44.5 13.28125 44.625 13.597656 C 44.949219 13.589844 45.273438 13.59375 45.59375 13.597656 C 44.980469 12.027344 44.394531 10.445312 43.777344 8.878906 C 43.480469 8.882812 43.183594 8.886719 42.886719 8.875 C 42.769531 9.09375 42.691406 9.328125 42.601562 9.558594 Z M 14.761719 14.792969 C 14.765625 28.9375 14.765625 43.082031 14.761719 57.226562 C 28.894531 57.226562 43.027344 57.222656 57.160156 57.230469 C 57.167969 50.320312 57.160156 43.40625 57.164062 36.496094 C 57.15625 29.257812 57.175781 22.019531 57.152344 14.785156 C 53.164062 14.804688 49.171875 14.785156 45.179688 14.792969 C 35.042969 14.792969 24.902344 14.792969 14.761719 14.792969 Z M 9.167969 17.617188 C 9.175781 19.1875 9.171875 20.761719 9.171875 22.332031 C 9.339844 22.332031 9.511719 22.332031 9.683594 22.332031 C 9.675781 21.167969 9.699219 20.003906 9.671875 18.84375 C 9.75 18.90625 9.828125 18.972656 9.890625 19.054688 C 10.773438 20.074219 11.667969 21.089844 12.550781 22.109375 C 12.644531 22.210938 12.722656 22.351562 12.875 22.351562 C 12.878906 20.773438 12.875 19.195312 12.878906 17.617188 C 12.710938 17.617188 12.539062 17.617188 12.367188 17.617188 C 12.382812 18.796875 12.363281 19.976562 12.378906 21.152344 C 11.367188 19.996094 10.363281 18.832031 9.355469 17.675781 C 9.3125 17.605469 9.234375 17.617188 9.167969 17.617188 Z M 10.972656 25.429688 C 10.21875 27 9.476562 28.574219 8.738281 30.148438 C 8.925781 30.15625 9.113281 30.152344 9.304688 30.144531 C 9.554688 29.632812 9.777344 29.113281 10.039062 28.609375 C 10.699219 28.613281 11.363281 28.601562 12.023438 28.617188 C 12.277344 29.125 12.515625 29.640625 12.761719 30.152344 C 12.945312 30.148438 13.125 30.152344 13.308594 30.15625 C 12.585938 28.582031 11.835938 27.015625 11.117188 25.441406 C 11.082031 25.4375 11.007812 25.433594 10.972656 25.429688 Z M 9.175781 33.246094 C 9.167969 34.816406 9.175781 36.390625 9.171875 37.964844 C 9.339844 37.964844 9.511719 37.964844 9.683594 37.964844 C 9.675781 36.796875 9.699219 35.628906 9.671875 34.460938 C 10.707031 35.605469 11.703125 36.792969 12.730469 37.941406 C 12.765625 37.953125 12.839844 37.976562 12.875 37.988281 C 12.882812 36.410156 12.875 34.832031 12.878906 33.257812 C 12.707031 33.257812 12.539062 33.257812 12.371094 33.261719 C 12.382812 34.4375 12.367188 35.613281 12.378906 36.789062 C 11.371094 35.632812 10.367188 34.480469 9.367188 33.320312 C 9.316406 33.265625 9.253906 33.242188 9.175781 33.246094 Z M 9.773438 41.386719 C 8.980469 41.816406 8.464844 42.71875 8.519531 43.625 C 8.511719 44.828125 9.554688 45.886719 10.734375 45.988281 C 11.460938 46.078125 12.28125 45.96875 12.828125 45.4375 C 13.335938 44.988281 13.558594 44.292969 13.535156 43.628906 C 12.851562 43.601562 12.171875 43.628906 11.488281 43.613281 C 11.484375 43.773438 11.480469 43.933594 11.480469 44.097656 C 11.984375 44.097656 12.488281 44.097656 12.992188 44.097656 C 12.871094 44.929688 12.054688 45.558594 11.226562 45.515625 C 10.265625 45.582031 9.308594 44.910156 9.085938 43.96875 C 8.945312 43.457031 9.0625 42.898438 9.363281 42.464844 C 9.734375 41.898438 10.414062 41.574219 11.085938 41.546875 C 11.769531 41.546875 12.40625 41.886719 12.902344 42.339844 C 13.03125 42.214844 13.167969 42.09375 13.292969 41.960938 C 12.871094 41.609375 12.410156 41.285156 11.867188 41.15625 C 11.175781 40.992188 10.40625 41.039062 9.773438 41.386719 Z M 9.773438 41.386719 "/>
<path style=" stroke:none;fill-rule:nonzero;fill:rgb(100%,100%,100%);fill-opacity:1;" d="M 9.535156 2.457031 C 10.078125 2.453125 10.628906 2.46875 11.164062 2.570312 C 11.875 2.714844 12.417969 3.371094 12.480469 4.085938 C 12.5 4.480469 12.515625 4.90625 12.320312 5.265625 C 12.105469 5.753906 11.613281 6.085938 11.089844 6.15625 C 10.574219 6.207031 10.054688 6.234375 9.535156 6.222656 C 9.535156 4.964844 9.539062 3.710938 9.535156 2.457031 Z M 9.535156 2.457031 "/>
<path style=" stroke:none;fill-rule:nonzero;fill:rgb(100%,100%,100%);fill-opacity:1;" d="M 37.984375 9.671875 C 38.554688 9.59375 39.140625 9.902344 39.445312 10.386719 C 39.867188 11.046875 39.726562 12.007812 39.105469 12.492188 C 38.734375 12.816406 38.195312 12.902344 37.726562 12.765625 C 37.230469 12.605469 36.816406 12.195312 36.6875 11.6875 C 36.566406 11.125 36.675781 10.480469 37.117188 10.085938 C 37.34375 9.84375 37.660156 9.714844 37.984375 9.671875 Z M 37.984375 9.671875 "/>
<path style=" stroke:none;fill-rule:nonzero;fill:rgb(100%,100%,100%);fill-opacity:1;" d="M 5.914062 9.769531 C 6.160156 9.773438 6.460938 9.746094 6.640625 9.945312 C 6.816406 10.128906 6.765625 10.445312 6.578125 10.597656 C 6.386719 10.742188 6.140625 10.71875 5.914062 10.71875 C 5.917969 10.402344 5.917969 10.085938 5.914062 9.769531 Z M 5.914062 9.769531 "/>
<path style=" stroke:none;fill-rule:nonzero;fill:rgb(100%,100%,100%);fill-opacity:1;" d="M 42.699219 11.753906 C 42.929688 11.25 43.105469 10.722656 43.332031 10.21875 C 43.53125 10.734375 43.71875 11.253906 43.941406 11.757812 C 43.527344 11.75 43.113281 11.757812 42.699219 11.753906 Z M 42.699219 11.753906 "/>
<path style=" stroke:none;fill-rule:nonzero;fill:rgb(100%,100%,100%);fill-opacity:1;" d="M 9.753906 11.273438 C 10.039062 11.359375 10.3125 11.484375 10.582031 11.613281 C 10.894531 11.535156 11.160156 11.3125 11.492188 11.289062 C 11.550781 11.453125 11.605469 11.617188 11.652344 11.785156 C 11.261719 11.839844 10.921875 12.042969 10.597656 12.257812 C 10.296875 12.019531 9.941406 11.851562 9.566406 11.769531 C 9.625 11.601562 9.6875 11.4375 9.753906 11.273438 Z M 9.753906 11.273438 "/>
<path style=" stroke:none;fill-rule:nonzero;fill:rgb(100%,100%,100%);fill-opacity:1;" d="M 5.914062 11.550781 C 6.226562 11.539062 6.558594 11.546875 6.832031 11.714844 C 7.109375 11.898438 7.175781 12.34375 6.90625 12.5625 C 6.613281 12.753906 6.246094 12.6875 5.917969 12.695312 C 5.917969 12.3125 5.921875 11.929688 5.914062 11.550781 Z M 5.914062 11.550781 "/>
<path style=" stroke:none;fill-rule:nonzero;fill:rgb(100%,100%,100%);fill-opacity:1;" d="M 11.023438 26.496094 C 11.300781 27.023438 11.539062 27.570312 11.792969 28.109375 C 11.285156 28.105469 10.773438 28.101562 10.265625 28.109375 C 10.519531 27.570312 10.78125 27.039062 11.023438 26.496094 Z M 11.023438 26.496094 "/>
<path style=" stroke:none;fill-rule:nonzero;fill:rgb(100%,100%,100%);fill-opacity:1;" d="M 48.597656 55.246094 C 48.601562 55.242188 48.605469 55.234375 48.605469 55.230469 C 48.605469 55.234375 48.601562 55.242188 48.597656 55.246094 Z M 48.597656 55.246094 "/>
<path style=" stroke:none;fill-rule:nonzero;fill:rgb(100%,100%,0.392157%);fill-opacity:1;" d="M 0 0.09375 C 20 0.078125 40 0.09375 60 0.0859375 L 60 60 L 0 60 Z M 0.898438 0.957031 C 0.910156 20.417969 0.894531 39.882812 0.910156 59.347656 C 20.367188 59.34375 39.824219 59.351562 59.277344 59.34375 C 59.273438 39.878906 59.277344 20.410156 59.277344 0.945312 C 47.96875 0.949219 36.65625 0.945312 25.347656 0.949219 C 17.199219 0.953125 9.046875 0.933594 0.898438 0.957031 Z M 0.898438 0.957031 "/>
<path style=" stroke:none;fill-rule:nonzero;fill:rgb(100%,100%,0.392157%);fill-opacity:1;" d="M 14.761719 14.792969 C 24.902344 14.792969 35.042969 14.792969 45.179688 14.792969 C 49.171875 14.785156 53.164062 14.804688 57.152344 14.785156 C 57.175781 22.019531 57.15625 29.257812 57.164062 36.496094 C 57.160156 43.40625 57.167969 50.320312 57.160156 57.230469 C 43.027344 57.222656 28.894531 57.226562 14.761719 57.226562 C 14.765625 43.082031 14.765625 28.9375 14.761719 14.792969 Z M 15.640625 15.683594 C 15.644531 29.238281 15.644531 42.792969 15.640625 56.351562 C 17.679688 56.34375 19.71875 56.347656 21.757812 56.347656 C 21.761719 53.664062 21.761719 50.980469 21.757812 48.296875 C 21.894531 48.292969 22.03125 48.285156 22.167969 48.269531 C 24.574219 48.234375 26.972656 47.746094 29.207031 46.855469 C 32.390625 45.582031 35.261719 43.449219 37.226562 40.621094 C 38.625 38.617188 39.566406 36.289062 39.871094 33.859375 C 40.125 31.902344 39.980469 29.890625 39.4375 27.992188 C 38.898438 26.035156 37.921875 24.207031 36.675781 22.605469 C 34.136719 19.386719 30.429688 17.179688 26.460938 16.246094 C 24.984375 15.890625 23.46875 15.71875 21.953125 15.691406 C 19.851562 15.683594 17.746094 15.695312 15.640625 15.683594 Z M 28.339844 15.699219 L 28.339844 15.753906 C 29.277344 15.816406 30.207031 15.964844 31.121094 16.175781 C 36.777344 17.375 42.007812 20.5 45.742188 24.917969 C 48.992188 28.703125 51.101562 33.441406 51.808594 38.375 C 52.070312 40.136719 52.109375 41.925781 52.035156 43.703125 C 51.898438 45.53125 51.632812 47.359375 51.128906 49.125 C 50.554688 51.253906 49.703125 53.3125 48.605469 55.230469 C 48.605469 55.234375 48.601562 55.242188 48.597656 55.246094 C 48.382812 55.613281 48.152344 55.972656 47.945312 56.347656 C 50.707031 56.351562 53.46875 56.332031 56.234375 56.355469 C 56.304688 56.140625 56.265625 55.914062 56.273438 55.691406 C 56.277344 42.359375 56.269531 29.027344 56.277344 15.695312 C 50.269531 15.683594 44.265625 15.695312 38.257812 15.691406 C 34.953125 15.699219 31.644531 15.671875 28.339844 15.699219 Z M 28.339844 15.699219 "/>
<path style=" stroke:none;fill-rule:nonzero;fill:rgb(0%,0%,80.000001%);fill-opacity:1;" d="M 9.054688 1.988281 C 9.804688 2 10.566406 1.929688 11.308594 2.074219 C 11.910156 2.195312 12.464844 2.59375 12.738281 3.148438 C 13.070312 3.792969 13.101562 4.570312 12.890625 5.253906 C 12.667969 5.933594 12.085938 6.507812 11.367188 6.621094 C 10.601562 6.746094 9.824219 6.671875 9.054688 6.691406 C 9.058594 5.125 9.0625 3.554688 9.054688 1.988281 Z M 9.535156 2.457031 C 9.539062 3.710938 9.535156 4.964844 9.535156 6.222656 C 10.054688 6.234375 10.574219 6.207031 11.089844 6.15625 C 11.613281 6.085938 12.105469 5.753906 12.320312 5.265625 C 12.515625 4.90625 12.5 4.480469 12.480469 4.085938 C 12.417969 3.371094 11.875 2.714844 11.164062 2.570312 C 10.628906 2.46875 10.078125 2.453125 9.535156 2.457031 Z M 9.535156 2.457031 "/>
<path style=" stroke:none;fill-rule:nonzero;fill:rgb(0%,0%,80.000001%);fill-opacity:1;" d="M 15.640625 15.683594 C 17.746094 15.695312 19.851562 15.683594 21.953125 15.691406 C 23.46875 15.71875 24.984375 15.890625 26.460938 16.246094 C 30.429688 17.179688 34.136719 19.386719 36.675781 22.605469 C 37.921875 24.207031 38.898438 26.035156 39.4375 27.992188 C 39.980469 29.890625 40.125 31.902344 39.871094 33.859375 C 39.566406 36.289062 38.625 38.617188 37.226562 40.621094 C 35.261719 43.449219 32.390625 45.582031 29.207031 46.855469 C 26.972656 47.746094 24.574219 48.234375 22.167969 48.269531 C 22.03125 48.285156 21.894531 48.292969 21.757812 48.296875 C 21.761719 50.980469 21.761719 53.664062 21.757812 56.347656 C 19.71875 56.347656 17.679688 56.34375 15.640625 56.351562 C 15.644531 42.792969 15.644531 29.238281 15.640625 15.683594 Z M 15.640625 15.683594 "/>
<path style=" stroke:none;fill-rule:nonzero;fill:rgb(0%,0%,80.000001%);fill-opacity:1;" d="M 28.339844 15.699219 C 31.644531 15.671875 34.953125 15.699219 38.257812 15.691406 C 44.265625 15.695312 50.269531 15.683594 56.277344 15.695312 C 56.269531 29.027344 56.277344 42.359375 56.273438 55.691406 C 56.265625 55.914062 56.304688 56.140625 56.234375 56.355469 C 53.46875 56.332031 50.707031 56.351562 47.945312 56.347656 C 48.152344 55.972656 48.382812 55.613281 48.597656 55.246094 C 48.601562 55.242188 48.605469 55.234375 48.605469 55.230469 C 49.703125 53.3125 50.554688 51.253906 51.128906 49.125 C 51.632812 47.359375 51.898438 45.53125 52.035156 43.703125 C 52.109375 41.925781 52.070312 40.136719 51.808594 38.375 C 51.101562 33.441406 48.992188 28.703125 45.742188 24.917969 C 42.007812 20.5 36.777344 17.375 31.121094 16.175781 C 30.207031 15.964844 29.277344 15.816406 28.339844 15.753906 Z M 28.339844 15.699219 "/>
<path style=" stroke:none;fill-rule:nonzero;fill:rgb(0%,0%,80.000001%);fill-opacity:1;" d="M 9.167969 17.617188 C 9.234375 17.617188 9.3125 17.605469 9.355469 17.675781 C 10.363281 18.832031 11.367188 19.996094 12.378906 21.152344 C 12.363281 19.976562 12.382812 18.796875 12.367188 17.617188 C 12.539062 17.617188 12.710938 17.617188 12.878906 17.617188 C 12.875 19.195312 12.878906 20.773438 12.875 22.351562 C 12.722656 22.351562 12.644531 22.210938 12.550781 22.109375 C 11.667969 21.089844 10.773438 20.074219 9.890625 19.054688 C 9.828125 18.972656 9.75 18.90625 9.671875 18.84375 C 9.699219 20.003906 9.675781 21.167969 9.683594 22.332031 C 9.511719 22.332031 9.339844 22.332031 9.171875 22.332031 C 9.171875 20.761719 9.175781 19.1875 9.167969 17.617188 Z M 9.167969 17.617188 "/>
<path style=" stroke:none;fill-rule:nonzero;fill:rgb(0%,0%,80.000001%);fill-opacity:1;" d="M 10.972656 25.429688 C 11.007812 25.433594 11.082031 25.4375 11.117188 25.441406 C 11.835938 27.015625 12.585938 28.582031 13.308594 30.15625 C 13.125 30.152344 12.945312 30.148438 12.761719 30.152344 C 12.515625 29.640625 12.277344 29.125 12.023438 28.617188 C 11.363281 28.601562 10.699219 28.613281 10.039062 28.609375 C 9.777344 29.113281 9.554688 29.632812 9.304688 30.144531 C 9.113281 30.152344 8.925781 30.15625 8.738281 30.148438 C 9.476562 28.574219 10.21875 27 10.972656 25.429688 Z M 11.023438 26.496094 C 10.78125 27.039062 10.519531 27.570312 10.265625 28.109375 C 10.773438 28.101562 11.285156 28.105469 11.792969 28.109375 C 11.539062 27.570312 11.300781 27.023438 11.023438 26.496094 Z M 11.023438 26.496094 "/>
<path style=" stroke:none;fill-rule:nonzero;fill:rgb(0%,0%,80.000001%);fill-opacity:1;" d="M 9.175781 33.246094 C 9.253906 33.242188 9.316406 33.265625 9.367188 33.320312 C 10.367188 34.480469 11.371094 35.632812 12.378906 36.789062 C 12.367188 35.613281 12.382812 34.4375 12.371094 33.261719 C 12.539062 33.257812 12.707031 33.257812 12.878906 33.257812 C 12.875 34.832031 12.882812 36.410156 12.875 37.988281 C 12.839844 37.976562 12.765625 37.953125 12.730469 37.941406 C 11.703125 36.792969 10.707031 35.605469 9.671875 34.460938 C 9.699219 35.628906 9.675781 36.796875 9.683594 37.964844 C 9.511719 37.964844 9.339844 37.964844 9.171875 37.964844 C 9.175781 36.390625 9.167969 34.816406 9.175781 33.246094 Z M 9.175781 33.246094 "/>
<path style=" stroke:none;fill-rule:nonzero;fill:rgb(0%,0%,80.000001%);fill-opacity:1;" d="M 9.773438 41.386719 C 10.40625 41.039062 11.175781 40.992188 11.867188 41.15625 C 12.410156 41.285156 12.871094 41.609375 13.292969 41.960938 C 13.167969 42.09375 13.03125 42.214844 12.902344 42.339844 C 12.40625 41.886719 11.769531 41.546875 11.085938 41.546875 C 10.414062 41.574219 9.734375 41.898438 9.363281 42.464844 C 9.0625 42.898438 8.945312 43.457031 9.085938 43.96875 C 9.308594 44.910156 10.265625 45.582031 11.226562 45.515625 C 12.054688 45.558594 12.871094 44.929688 12.992188 44.097656 C 12.488281 44.097656 11.984375 44.097656 11.480469 44.097656 C 11.480469 43.933594 11.484375 43.773438 11.488281 43.613281 C 12.171875 43.628906 12.851562 43.601562 13.535156 43.628906 C 13.558594 44.292969 13.335938 44.988281 12.828125 45.4375 C 12.28125 45.96875 11.460938 46.078125 10.734375 45.988281 C 9.554688 45.886719 8.511719 44.828125 8.519531 43.625 C 8.464844 42.71875 8.980469 41.816406 9.773438 41.386719 Z M 9.773438 41.386719 "/>
<path style=" stroke:none;fill-rule:nonzero;fill:rgb(80.000001%,0.392157%,0.784314%);fill-opacity:1;" d="M 14.953125 9.519531 C 15.496094 8.992188 16.273438 8.703125 17.03125 8.78125 C 17.734375 8.835938 18.410156 9.183594 18.863281 9.726562 C 18.652344 9.945312 18.421875 10.140625 18.207031 10.355469 C 17.894531 10.003906 17.46875 9.734375 16.996094 9.675781 C 16.347656 9.566406 15.679688 9.941406 15.378906 10.511719 C 15.105469 11.046875 15.164062 11.738281 15.523438 12.21875 C 16 12.851562 16.953125 13.007812 17.625 12.613281 C 17.839844 12.480469 18.035156 12.3125 18.21875 12.144531 C 18.414062 12.371094 18.625 12.582031 18.84375 12.785156 C 18.351562 13.347656 17.628906 13.738281 16.871094 13.71875 C 16.167969 13.757812 15.433594 13.515625 14.953125 12.992188 C 14.488281 12.535156 14.269531 11.867188 14.292969 11.222656 C 14.273438 10.597656 14.515625 9.96875 14.953125 9.519531 Z M 14.953125 9.519531 "/>
<path style=" stroke:none;fill-rule:nonzero;fill:rgb(80.000001%,0.392157%,0.784314%);fill-opacity:1;" d="M 37.792969 8.796875 C 38.390625 8.710938 39.035156 8.824219 39.527344 9.183594 C 40.132812 9.589844 40.542969 10.285156 40.597656 11.011719 C 40.667969 11.683594 40.464844 12.390625 40.011719 12.898438 C 39.128906 13.96875 37.292969 14.007812 36.378906 12.957031 C 35.5 12.050781 35.5 10.460938 36.371094 9.550781 C 36.742188 9.148438 37.253906 8.878906 37.792969 8.796875 Z M 37.984375 9.671875 C 37.660156 9.714844 37.34375 9.84375 37.117188 10.085938 C 36.675781 10.480469 36.566406 11.125 36.6875 11.6875 C 36.816406 12.195312 37.230469 12.605469 37.726562 12.765625 C 38.195312 12.902344 38.734375 12.816406 39.105469 12.492188 C 39.726562 12.007812 39.867188 11.046875 39.445312 10.386719 C 39.140625 9.902344 38.554688 9.59375 37.984375 9.671875 Z M 37.984375 9.671875 "/>
<path style=" stroke:none;fill-rule:nonzero;fill:rgb(80.000001%,0.392157%,0.784314%);fill-opacity:1;" d="M 10.570312 8.855469 C 10.886719 8.855469 11.203125 8.851562 11.519531 8.855469 C 12.097656 10.433594 12.675781 12.011719 13.253906 13.59375 C 12.632812 13.59375 12.011719 13.589844 11.390625 13.597656 C 11.277344 13.292969 11.164062 12.992188 11.066406 12.6875 C 10.882812 12.960938 10.835938 13.300781 10.699219 13.597656 C 10.078125 13.589844 9.457031 13.597656 8.835938 13.59375 C 9.058594 13.003906 9.265625 12.40625 9.496094 11.820312 C 9.152344 11.710938 8.800781 11.789062 8.453125 11.824219 C 8.414062 11.621094 8.363281 11.421875 8.324219 11.21875 C 8.777344 11.101562 9.25 11.101562 9.703125 11.222656 C 10.003906 10.4375 10.277344 9.640625 10.570312 8.855469 Z M 9.753906 11.273438 C 9.6875 11.4375 9.625 11.601562 9.566406 11.769531 C 9.941406 11.851562 10.296875 12.019531 10.597656 12.257812 C 10.921875 12.042969 11.261719 11.839844 11.652344 11.785156 C 11.605469 11.617188 11.550781 11.453125 11.492188 11.289062 C 11.160156 11.3125 10.894531 11.535156 10.582031 11.613281 C 10.3125 11.484375 10.039062 11.359375 9.753906 11.273438 Z M 9.753906 11.273438 "/>
<path style=" stroke:none;fill-rule:nonzero;fill:rgb(80.000001%,0.392157%,0.784314%);fill-opacity:1;" d="M 4.996094 8.878906 C 5.601562 8.894531 6.230469 8.828125 6.820312 9.007812 C 7.375 9.167969 7.75 9.773438 7.621094 10.34375 C 7.585938 10.621094 7.382812 10.832031 7.183594 11.011719 C 7.558594 11.175781 7.882812 11.503906 7.949219 11.917969 C 7.972656 12.234375 7.996094 12.574219 7.832031 12.859375 C 7.605469 13.300781 7.128906 13.582031 6.636719 13.59375 C 6.089844 13.59375 5.542969 13.597656 4.992188 13.589844 C 5.003906 12.019531 4.996094 10.449219 4.996094 8.878906 Z M 5.914062 9.769531 C 5.917969 10.085938 5.917969 10.402344 5.914062 10.71875 C 6.140625 10.71875 6.386719 10.742188 6.578125 10.597656 C 6.765625 10.445312 6.816406 10.128906 6.640625 9.945312 C 6.460938 9.746094 6.160156 9.773438 5.914062 9.769531 Z M 5.914062 11.550781 C 5.921875 11.929688 5.917969 12.3125 5.917969 12.695312 C 6.246094 12.6875 6.613281 12.753906 6.90625 12.5625 C 7.175781 12.34375 7.109375 11.898438 6.832031 11.714844 C 6.558594 11.546875 6.226562 11.539062 5.914062 11.550781 Z M 5.914062 11.550781 "/>
<path style=" stroke:none;fill-rule:nonzero;fill:rgb(80.000001%,0.392157%,0.784314%);fill-opacity:1;" d="M 19.566406 8.878906 C 19.878906 8.882812 20.195312 8.882812 20.507812 8.875 C 20.523438 9.472656 20.507812 10.070312 20.515625 10.664062 C 21.027344 10.664062 21.539062 10.664062 22.050781 10.664062 C 22.058594 10.070312 22.042969 9.472656 22.058594 8.875 C 22.363281 8.882812 22.667969 8.882812 22.972656 8.878906 C 22.972656 10.449219 22.964844 12.019531 22.976562 13.589844 C 22.667969 13.597656 22.359375 13.589844 22.050781 13.597656 C 22.058594 12.914062 22.046875 12.230469 22.054688 11.550781 C 21.539062 11.550781 21.027344 11.550781 20.511719 11.550781 C 20.515625 12.230469 20.511719 12.914062 20.515625 13.597656 C 20.199219 13.59375 19.882812 13.59375 19.566406 13.597656 C 19.566406 12.023438 19.570312 10.453125 19.566406 8.878906 Z M 19.566406 8.878906 "/>
<path style=" stroke:none;fill-rule:nonzero;fill:rgb(80.000001%,0.392157%,0.784314%);fill-opacity:1;" d="M 27.496094 8.878906 C 27.800781 8.898438 28.121094 8.847656 28.414062 8.90625 C 28.425781 9.421875 28.414062 9.941406 28.414062 10.460938 C 28.84375 9.949219 29.226562 9.402344 29.660156 8.894531 C 30.03125 8.855469 30.40625 8.894531 30.777344 8.878906 C 30.257812 9.609375 29.675781 10.285156 29.140625 11 C 29.746094 11.859375 30.339844 12.726562 30.9375 13.59375 C 30.566406 13.59375 30.195312 13.59375 29.824219 13.59375 C 29.359375 12.914062 28.902344 12.230469 28.417969 11.570312 C 28.414062 12.246094 28.421875 12.921875 28.414062 13.597656 C 28.109375 13.589844 27.800781 13.59375 27.496094 13.597656 C 27.5 12.023438 27.496094 10.453125 27.496094 8.878906 Z M 27.496094 8.878906 "/>
<path style=" stroke:none;fill-rule:nonzero;fill:rgb(80.000001%,0.392157%,0.784314%);fill-opacity:1;" d="M 31.496094 8.878906 C 31.808594 8.878906 32.125 8.882812 32.4375 8.875 C 32.449219 9.472656 32.4375 10.070312 32.445312 10.664062 C 32.957031 10.664062 33.46875 10.664062 33.980469 10.664062 C 33.984375 10.070312 33.972656 9.472656 33.984375 8.875 C 34.289062 8.882812 34.597656 8.882812 34.902344 8.878906 C 34.898438 10.453125 34.898438 12.023438 34.902344 13.597656 C 34.59375 13.59375 34.285156 13.59375 33.976562 13.597656 C 33.984375 12.914062 33.976562 12.230469 33.980469 11.546875 C 33.46875 11.554688 32.953125 11.550781 32.441406 11.550781 C 32.445312 12.230469 32.441406 12.914062 32.445312 13.597656 C 32.128906 13.59375 31.8125 13.589844 31.496094 13.597656 C 31.492188 12.027344 31.5 10.453125 31.496094 8.878906 Z M 31.496094 8.878906 "/>
<path style=" stroke:none;fill-rule:nonzero;fill:rgb(80.000001%,0.392157%,0.784314%);fill-opacity:1;" d="M 42.601562 9.558594 C 42.691406 9.328125 42.769531 9.09375 42.886719 8.875 C 43.183594 8.886719 43.480469 8.882812 43.777344 8.878906 C 44.394531 10.445312 44.980469 12.027344 45.59375 13.597656 C 45.273438 13.59375 44.949219 13.589844 44.625 13.597656 C 44.5 13.28125 44.390625 12.960938 44.265625 12.648438 C 43.632812 12.65625 43.003906 12.648438 42.375 12.652344 C 42.253906 12.964844 42.117188 13.273438 42.011719 13.59375 C 41.683594 13.59375 41.359375 13.59375 41.03125 13.59375 C 41.558594 12.25 42.078125 10.902344 42.601562 9.558594 Z M 42.699219 11.753906 C 43.113281 11.757812 43.527344 11.75 43.941406 11.757812 C 43.71875 11.253906 43.53125 10.734375 43.332031 10.21875 C 43.105469 10.722656 42.929688 11.25 42.699219 11.753906 Z M 42.699219 11.753906 "/>
</g>
</svg>
